# xmcd
#
# Track frame offsets: 
#        150
#        18296
#        31246
#        53717
#        77010
#        89070
#        109782
#        130941
#        164353
#        194270
#        213812
#        243649
#
# Disc length: 3437 seconds
#
# Revision: 0
# Processed by: cddbd v1.5.2PL0 Copyright (c) Steve Scherf et al.
# Submitted via: ExactAudioCopy v0.99pb3
#
DISCID=9a0d6b0c
DTITLE=Various Artist - Indestructible Latin Beats
DYEAR=2005
DGENRE=Latin
TTITLE0=Instituto - Dama Tereza 
TTITLE1=3 Pesos - Candela
TTITLE2=Dj Dolores - O Medo Do Artilheiro [Part 1] (The Striker's Anxi
TTITLE2=ety)
TTITLE3=Bid Feat. Black Alien and DJ Soul Slinger - Na Noite Se Resolve 
TTITLE4=Fruko Y Sus Tesos - Mambo No.5
TTITLE5=Spanish Harlem Orchestra - Un Gran Dia En El Barrio
TTITLE6=Marco Di Marco Feat. Nathan Haines - Take Off (Nicola Conte "C
TTITLE6=ampi's Idea Version")
TTITLE7=Leandro Bomfim - A Malta (Drumagick Remix)
TTITLE8=No Comply Feat. Mark Fitzgibbon - 4th Floor Fiesta
TTITLE9=Sonora Carruseles - La Salsa La Traigo Yo
TTITLE10=Demacustico - Brazil (Full Fat Mix)
TTITLE11=Max Sedgley - Happy (Spiritual South Go Happy In Rio Mix)
EXTD=
EXTT0=
EXTT1=
EXTT2=
EXTT3=
EXTT4=
EXTT5=
EXTT6=
EXTT7=
EXTT8=
EXTT9=
EXTT10=
EXTT11=
PLAYORDER=
